{
  "accessors": [
    {
      "bufferView": 2,
      "componentType": 5126,
      "count": 1653,
      "max": [
        0.317221999168396,
        0.1427450031042099,
        1.2202249765396118
      ],
      "min": [
        -0.34038498997688293,
        -0.14598900079727173,
        -0.009992999956011772
      ],
      "type": "VEC3"
    },
    {
      "bufferView": 2,
      "byteOffset": 19836,
      "componentType": 5126,
      "count": 1653,
      "max": [
        0.9995242953300476,
        0.9997867941856384,
        0.9996582865715027
      ],
      "min": [
        -0.998684287071228,
        -0.9996933341026306,
        -0.9992860555648804
      ],
      "type": "VEC3"
    },
    {
      "bufferView": 1,
      "componentType": 5126,
      "count": 1653,
      "max": [
        0.9970999956130981,
        2.996299982070923
      ],
      "min": [
        -0.00039999998989515007,
        2.0069000720977783
      ],
      "type": "VEC2"
    },
    {
      "bufferView": 0,
      "componentType": 5125,
      "count": 7305,
      "type": "SCALAR"
    },
    {
      "bufferView": 2,
      "byteOffset": 39672,
      "componentType": 5126,
      "count": 1593,
      "max": [
        0.3271839916706085,
        0.07582800090312958,
        0.5952849984169006
      ],
      "min": [
        -0.35401299595832825,
        -0.08481399714946747,
        0.3269749879837036
      ],
      "type": "VEC3"
    },
    {
      "bufferView": 2,
      "byteOffset": 58788,
      "componentType": 5126,
      "count": 1593,
      "max": [
        0.9997656941413879,
        0.9997115731239319,
        0.8649651408195496
      ],
      "min": [
        -0.9996553063392639,
        -0.9995139241218567,
        -0.9999544620513916
      ],
      "type": "VEC3"
    },
    {
      "bufferView": 1,
      "byteOffset": 13224,
      "componentType": 5126,
      "count": 1593,
      "max": [
        0.9178000092506409,
        2.9828999042510986
      ],
      "min": [
        0.07840000092983246,
        2.0053999423980713
      ],
      "type": "VEC2"
    },
    {
      "bufferView": 0,
      "byteOffset": 29220,
      "componentType": 5125,
      "count": 8133,
      "type": "SCALAR"
    },
    {
      "bufferView": 2,
      "byteOffset": 77904,
      "componentType": 5126,
      "count": 71,
      "max": [
        0.031700000166893005,
        -0.09212200343608856,
        1.1512609720230103
      ],
      "min": [
        -0.03227100148797035,
        -0.14239799976348877,
        0.7916190028190613
      ],
      "type": "VEC3"
    },
    {
      "bufferView": 2,
      "byteOffset": 78756,
      "componentType": 5126,
      "count": 71,
      "max": [
        0.985820472240448,
        0.9995141625404358,
        0.983590304851532
      ],
      "min": [
        -1.0,
        -0.9811776280403137,
        -0.9692716598510742
      ],
      "type": "VEC3"
    },
    {
      "bufferView": 1,
      "byteOffset": 25968,
      "componentType": 5126,
      "count": 71,
      "max": [
        0.07199999690055847,
        3.884999990463257
      ],
      "min": [
        0.009600000455975533,
        3.125499963760376
      ],
      "type": "VEC2"
    },
    {
      "bufferView": 0,
      "byteOffset": 61752,
      "componentType": 5125,
      "count": 354,
      "type": "SCALAR"
    }
  ],
  "asset": {
    "extras": {
      "author": "Socal (https://sketchfab.com/Dababytoxd)",
      "license": "CC-BY-4.0 (http://creativecommons.org/licenses/by/4.0/)",
      "source": "https://sketchfab.com/3d-models/large-speaker-man-body-c1dd1816a7e04e7eafdf5797c5f650af",
      "title": "Large Speaker Man Body"
    },
    "generator": "Sketchfab-16.56.0",
    "version": "2.0"
  },
  "bufferViews": [
    {
      "buffer": 0,
      "byteLength": 63168,
      "name": "floatBufferViews",
      "target": 34963
    },
    {
      "buffer": 0,
      "byteLength": 26536,
      "byteOffset": 63168,
      "byteStride": 8,
      "name": "floatBufferViews",
      "target": 34962
    },
    {
      "buffer": 0,
      "byteLength": 79608,
      "byteOffset": 89704,
      "byteStride": 12,
      "name": "floatBufferViews",
      "target": 34962
    }
  ],
  "buffers": [
    {
      "byteLength": 169312,
      "uri": "scene.bin"
    }
  ],
  "images": [
    {
      "uri": "textures/Suit_Shirt_baseColor.png"
    }
  ],
  "materials": [
    {
      "doubleSided": true,
      "name": "Suit_Shirt",
      "pbrMetallicRoughness": {
        "baseColorTexture": {
          "index": 0
        },
        "metallicFactor": 0.0,
        "roughnessFactor": 0.6
      }
    },
    {
      "doubleSided": true,
      "name": "arms",
      "pbrMetallicRoughness": {
        "baseColorFactor": [
          0.0,
          0.0,
          0.0,
          1.0
        ],
        "metallicFactor": 0.0,
        "roughnessFactor": 0.6
      }
    },
    {
      "doubleSided": true,
      "name": "tiesandties",
      "pbrMetallicRoughness": {
        "baseColorFactor": [
          0.21815952230455524,
          0.0034707899978590655,
          0.0034707899978590655,
          1.0
        ],
        "metallicFactor": 0.0,
        "roughnessFactor": 0.6
      }
    }
  ],
  "meshes": [
    {
      "name": "Object_0",
      "primitives": [
        {
          "attributes": {
            "NORMAL": 1,
            "POSITION": 0,
            "TEXCOORD_0": 2
          },
          "indices": 3,
          "material": 0,
          "mode": 4
        }
      ]
    },
    {
      "name": "Object_1",
      "primitives": [
        {
          "attributes": {
            "NORMAL": 5,
            "POSITION": 4,
            "TEXCOORD_0": 6
          },
          "indices": 7,
          "material": 1,
          "mode": 4
        }
      ]
    },
    {
      "name": "Object_2",
      "primitives": [
        {
          "attributes": {
            "NORMAL": 9,
            "POSITION": 8,
            "TEXCOORD_0": 10
          },
          "indices": 11,
          "material": 2,
          "mode": 4
        }
      ]
    }
  ],
  "nodes": [
    {
      "children": [
        1
      ],
      "matrix": [
        1.0,
        0.0,
        0.0,
        0.0,
        0.0,
        2.220446049250313e-16,
        -1.0,
        0.0,
        0.0,
        1.0,
        2.220446049250313e-16,
        0.0,
        0.0,
        0.0,
        0.0,
        1.0
      ],
      "name": "Sketchfab_model"
    },
    {
      "children": [
        2,
        3,
        4
      ],
      "name": "53496f3cf30b41ba80adba9fc444e723.obj.cleaner.materialmerger.gles"
    },
    {
      "mesh": 0,
      "name": "Object_2"
    },
    {
      "mesh": 1,
      "name": "Object_3"
    },
    {
      "mesh": 2,
      "name": "Object_4"
    }
  ],
  "samplers": [
    {
      "magFilter": 9729,
      "minFilter": 9987,
      "wrapS": 10497,
      "wrapT": 10497
    }
  ],
  "scene": 0,
  "scenes": [
    {
      "name": "Sketchfab_Scene",
      "nodes": [
        0
      ]
    }
  ],
  "textures": [
    {
      "sampler": 0,
      "source": 0
    }
  ]
}
